name analog
datacolumns 19
datarows 51
range 0.0 0.025
endheader
time	ground_force_vx	ground_force_vy	ground_force_vz	ground_force_px	ground_force_py	ground_force_pz	l_ground_force_vx	l_ground_force_vy	l_ground_force_vz	l_ground_force_px	l_ground_force_py	l_ground_force_pz	ground_torque_x	ground_torque_y	ground_torque_z	l_ground_torque_x	l_ground_torque_y	l_ground_torque_z
0.0	-0.0	-0.0	-0.0	-19.379579544067383	84.07646179199219	-536.9660034179688	-2.8248581886291504	-62.52484130859375	-370.75048828125	-0.0	-0.0	-0.0	-0.0	-0.0	-0.0	79016.765625	-1033.7666015625	-462.8509521484375
0.0005	-0.0	-0.0	-0.0	-19.330984115600582	80.29186248779297	-515.1250610351562	-3.35030460357666	-66.05774688720703	-393.7383728027344	-0.0	-0.0	-0.0	-0.0	-0.0	-0.0	83260.4375	-1624.8809814453125	-598.9332885742188
0.001	-0.0	-0.0	-0.0	-18.466575622558597	75.04096221923828	-490.70318603515625	-2.9206290245056152	-69.9100341796875	-415.5710144042969	-0.0	-0.0	-0.0	-0.0	-0.0	-0.0	87967.546875	-2382.83251953125	-825.3289184570312
0.0015	-0.0	-0.0	-0.0	-17.752891540527344	70.31708526611328	-465.5748901367188	-1.8697117567062376	-74.31230926513672	-437.08245849609375	-0.0	-0.0	-0.0	-0.0	-0.0	-0.0	93009.609375	-2847.256591796875	-793.739013671875
0.002	-0.0	-0.0	-0.0	-17.478511810302734	66.71147155761719	-439.5487365722656	-0.6895055770874023	-78.57825469970703	-460.9860229492188	-0.0	-0.0	-0.0	-0.0	-0.0	-0.0	97960.1484375	-3437.837158203125	-638.8952026367188
0.0025	-0.0	-0.0	-0.0	-16.107065200805664	61.72737121582031	-409.8834228515625	0.6143235564231873	-83.64726257324219	-484.4303894042969	-0.0	-0.0	-0.0	-0.0	-0.0	-0.0	103106.0078125	-4348.4189453125	-433.8817443847656
0.003	-0.0	-0.0	-0.0	-15.641372680664062	57.1259651184082	-381.5250244140625	1.459033489227295	-87.45822143554688	-507.4734191894531	-0.0	-0.0	-0.0	-0.0	-0.0	-0.0	108020.1328125	-5030.25830078125	-265.1201477050781
0.0035	-0.0	-0.0	-0.0	-14.075591087341309	52.97363662719727	-357.0546875	1.8629264831542969	-92.04421997070312	-530.8133544921875	-0.0	-0.0	-0.0	-0.0	-0.0	-0.0	113057.765625	-5969.4443359375	-350.5444641113281
0.004	-0.0	-0.0	-0.0	-12.152119636535645	48.49818420410156	-326.1067810058594	1.5644100904464722	-96.13268280029295	-556.0023193359375	-0.0	-0.0	-0.0	-0.0	-0.0	-0.0	118191.3984375	-6511.75390625	-610.0885009765625
0.0045000000000000005	-0.0	-0.0	-0.0	-9.819610595703123	43.69853973388672	-295.7859191894531	0.9886890649795532	-100.2080535888672	-578.0992431640625	-0.0	-0.0	-0.0	-0.0	-0.0	-0.0	123383.3984375	-6903.943359375	-618.030517578125
0.005	-0.0	-0.0	-0.0	-7.888700008392334	38.51708221435547	-270.0311584472656	0.677885115146637	-104.43423461914062	-601.3392944335938	-0.0	-0.0	-0.0	-0.0	-0.0	-0.0	128315.4921875	-7538.34033203125	-795.1824951171875
0.0055	-0.0	-0.0	-0.0	-5.722114086151123	33.819034576416016	-243.1658172607422	0.3485413491725921	-108.4715805053711	-623.958740234375	-0.0	-0.0	-0.0	-0.0	-0.0	-0.0	133218.15625	-7870.6708984375	-826.125732421875
0.006	-0.0	-0.0	-0.0	-3.1864638328552246	29.534835815429688	-219.8571014404297	-0.1899416595697403	-112.1934814453125	-643.9833984375	-0.0	-0.0	-0.0	-0.0	-0.0	-0.0	137729.15625	-8352.3916015625	-973.6948852539062
0.006500000000000001	-0.0	-0.0	-0.0	-0.796691358089447	25.45410919189453	-197.6825256347656	-0.1072659865021705	-115.0770034790039	-666.400390625	-0.0	-0.0	-0.0	-0.0	-0.0	-0.0	142652.890625	-8586.8349609375	-913.0223388671876
0.007	-0.0	-0.0	-0.0	1.8734207153320312	22.264131546020508	-179.01344299316406	-0.6148316860198975	-117.22122955322266	-689.3462524414062	-0.0	-0.0	-0.0	-0.0	-0.0	-0.0	147365.734375	-9290.8623046875	-777.9757080078125
0.0075	-0.0	-0.0	-0.0	3.621105909347534	20.036094665527344	-159.918212890625	-0.342703253030777	-118.82288360595705	-709.6194458007812	-0.0	-0.0	-0.0	-0.0	-0.0	-0.0	152273.90625	-10080.9990234375	-683.0336303710938
0.008	-0.0	-0.0	-0.0	5.263420104980469	17.653841018676758	-141.7874298095703	0.5382750630378723	-120.7776336669922	-730.7742919921875	-0.0	-0.0	-0.0	-0.0	-0.0	-0.0	156480.875	-10686.47265625	-301.2906494140625
0.0085	-0.0	-0.0	-0.0	6.9644060134887695	15.532612800598145	-125.2840805053711	1.7742156982421875	-123.10855102539062	-747.6275634765625	-0.0	-0.0	-0.0	-0.0	-0.0	-0.0	160261.46875	-11234.0107421875	-10.323702812194824
0.009000000000000001	-0.0	-0.0	-0.0	9.016172409057615	13.648761749267578	-110.00493621826172	2.862321376800537	-125.04003143310548	-762.290771484375	-0.0	-0.0	-0.0	-0.0	-0.0	-0.0	163740.875	-12038.7880859375	253.01927185058597
0.0095	-0.0	-0.0	-0.0	10.169998168945312	12.627283096313477	-96.30228424072266	4.275625228881836	-126.63006591796876	-775.2314453125	-0.0	-0.0	-0.0	-0.0	-0.0	-0.0	166403.765625	-12814.626953125	746.044677734375
0.01	-0.0	-0.0	-0.0	11.847567558288574	11.207210540771484	-82.5750961303711	5.35161828994751	-127.81878662109376	-785.3103637695312	-0.0	-0.0	-0.0	-0.0	-0.0	-0.0	168884.703125	-12949.9921875	1159.839111328125
0.0105	-0.0	-0.0	-0.0	13.019000053405762	9.508304595947266	-72.28836822509766	6.470168113708496	-128.61915588378906	-794.82666015625	-0.0	-0.0	-0.0	-0.0	-0.0	-0.0	170611.96875	-13514.2685546875	1457.0467529296875
0.011	-0.0	-0.0	-0.0	13.375900268554688	7.469939708709717	-60.96529006958008	7.185573577880859	-129.7501983642578	-803.6802368164062	-0.0	-0.0	-0.0	-0.0	-0.0	-0.0	172100.8125	-13661.8662109375	1492.592041015625
0.0115	-0.0	-0.0	-0.0	13.827629089355469	6.294669151306152	-50.504730224609375	8.150215148925781	-131.3399200439453	-810.7960815429688	-0.0	-0.0	-0.0	-0.0	-0.0	-0.0	173917.546875	-13886.44140625	1605.8270263671875
0.012	-0.0	-0.0	-0.0	13.738418579101562	4.088889598846436	-41.56518173217773	8.272282600402832	-133.7135009765625	-818.3677368164062	-0.0	-0.0	-0.0	-0.0	-0.0	-0.0	174817.671875	-14394.046875	1838.9002685546875
0.0125	-0.0	-0.0	-0.0	13.855216979980469	2.66288685798645	-34.19292449951172	8.349820137023926	-135.77781677246094	-823.9761352539062	-0.0	-0.0	-0.0	-0.0	-0.0	-0.0	175921.84375	-14395.607421875	1843.9658203125
0.013000000000000001	-0.0	-0.0	-0.0	13.944049835205078	1.4880307912826538	-26.690860748291016	8.26095962524414	-138.06300354003906	-828.29443359375	-0.0	-0.0	-0.0	-0.0	-0.0	-0.0	177301.375	-14635.6728515625	1785.759033203125
0.0135	-0.0	-0.0	-0.0	13.768412590026855	0.2727697193622589	-22.47564125061035	7.889890193939209	-140.43148803710938	-834.821533203125	-0.0	-0.0	-0.0	-0.0	-0.0	-0.0	177977.03125	-14941.833984375	1792.017333984375
0.014	-0.0	-0.0	-0.0	-0.0	-0.0	-0.0	7.801220417022705	-142.21913146972656	-841.127197265625	-0.0	-0.0	-0.0	-0.0	-0.0	-0.0	179264.5625	-15280.1923828125	2010.8978271484373
0.0145	-0.0	-0.0	-0.0	-0.0	-0.0	-0.0	7.97871732711792	-144.22930908203125	-845.0296020507812	-0.0	-0.0	-0.0	-0.0	-0.0	-0.0	179894.6875	-15468.2158203125	1958.28759765625
0.015	-0.0	-0.0	-0.0	-0.0	-0.0	-0.0	7.978758335113525	-145.65283203125	-847.4525146484375	-0.0	-0.0	-0.0	-0.0	-0.0	-0.0	180573.125	-15754.958984375	2109.718017578125
0.0155	-0.0	-0.0	-0.0	-0.0	-0.0	-0.0	7.963418006896973	-146.88919067382812	-851.2923583984375	-0.0	-0.0	-0.0	-0.0	-0.0	-0.0	181129.1875	-15864.3408203125	2316.96728515625
0.016	-0.0	-0.0	-0.0	-0.0	-0.0	-0.0	8.098074913024902	-147.66880798339844	-852.1990966796875	-0.0	-0.0	-0.0	-0.0	-0.0	-0.0	181274.359375	-16263.8701171875	2465.125732421875
0.0165	-0.0	-0.0	-0.0	-0.0	-0.0	-0.0	8.990015029907227	-147.4038848876953	-851.9497680664062	-0.0	-0.0	-0.0	-0.0	-0.0	-0.0	181717.90625	-16502.169921875	2815.016357421875
0.017	-0.0	-0.0	-0.0	-0.0	-0.0	-0.0	10.74393081665039	-146.35397338867188	-853.5975341796875	-0.0	-0.0	-0.0	-0.0	-0.0	-0.0	181844.359375	-16993.046875	3144.519287109375
0.0175	-0.0	-0.0	-0.0	-0.0	-0.0	-0.0	12.069571495056152	-144.76901245117188	-850.5526123046875	-0.0	-0.0	-0.0	-0.0	-0.0	-0.0	181252.203125	-17082.1328125	3498.552978515625
0.018000000000000002	-0.0	-0.0	-0.0	-0.0	-0.0	-0.0	13.040485382080078	-142.90931701660156	-848.7301635742188	-0.0	-0.0	-0.0	-0.0	-0.0	-0.0	180664.15625	-16931.779296875	3664.32568359375
0.0185	-0.0	-0.0	-0.0	-0.0	-0.0	-0.0	13.66624927520752	-140.76092529296875	-842.9085693359375	-0.0	-0.0	-0.0	-0.0	-0.0	-0.0	179818.8125	-16598.228515625	3912.87890625
0.019	-0.0	-0.0	-0.0	-0.0	-0.0	-0.0	13.927593231201172	-138.19036865234375	-839.379150390625	-0.0	-0.0	-0.0	-0.0	-0.0	-0.0	179076.5625	-16474.5546875	4066.85546875
0.0195	-0.0	-0.0	-0.0	-0.0	-0.0	-0.0	13.493385314941406	-135.9224090576172	-835.574951171875	-0.0	-0.0	-0.0	-0.0	-0.0	-0.0	178312.84375	-16658.630859375	4104.6240234375
0.02	-0.0	-0.0	-0.0	-0.0	-0.0	-0.0	13.722489356994627	-133.1845245361328	-834.1776733398438	-0.0	-0.0	-0.0	-0.0	-0.0	-0.0	178031.71875	-16591.283203125	3921.247802734375
0.0205	-0.0	-0.0	-0.0	-0.0	-0.0	-0.0	12.876781463623049	-131.07394409179688	-835.7970581054688	-0.0	-0.0	-0.0	-0.0	-0.0	-0.0	178698.046875	-16428.990234375	3740.14013671875
0.021	-0.0	-0.0	-0.0	-0.0	-0.0	-0.0	13.040485382080078	-129.90328979492188	-835.95751953125	-0.0	-0.0	-0.0	-0.0	-0.0	-0.0	178910.828125	-16297.357421875	3633.979248046875
0.021500000000000002	-0.0	-0.0	-0.0	-0.0	-0.0	-0.0	13.297739028930664	-128.22100830078125	-839.02880859375	-0.0	-0.0	-0.0	-0.0	-0.0	-0.0	179717.59375	-16570.15234375	3569.206787109375
0.022	-0.0	-0.0	-0.0	-0.0	-0.0	-0.0	12.512618064880373	-126.7328643798828	-842.8174438476562	-0.0	-0.0	-0.0	-0.0	-0.0	-0.0	180578.6875	-16778.384765625	3267.94677734375
0.0225	-0.0	-0.0	-0.0	-0.0	-0.0	-0.0	12.739771842956545	-125.67745971679688	-843.5332641601562	-0.0	-0.0	-0.0	-0.0	-0.0	-0.0	180989.28125	-16574.12109375	2998.533935546875
0.023	-0.0	-0.0	-0.0	-0.0	-0.0	-0.0	12.13625431060791	-124.50918579101562	-845.56103515625	-0.0	-0.0	-0.0	-0.0	-0.0	-0.0	181167.765625	-16618.369140625	2758.268310546875
0.0235	-0.0	-0.0	-0.0	-0.0	-0.0	-0.0	11.709823608398438	-125.05931854248048	-843.5999755859375	-0.0	-0.0	-0.0	-0.0	-0.0	-0.0	180863.75	-16423.650390625	2369.503173828125
0.024	-0.0	-0.0	-0.0	-0.0	-0.0	-0.0	11.257974624633787	-126.0944595336914	-840.1077880859375	-0.0	-0.0	-0.0	-0.0	-0.0	-0.0	180207.9375	-16369.474609375	2021.4105224609373
0.0245	-0.0	-0.0	-0.0	-0.0	-0.0	-0.0	11.173452377319336	-125.8665771484375	-837.2979736328125	-0.0	-0.0	-0.0	-0.0	-0.0	-0.0	179235.421875	-15928.4677734375	1846.1839599609373
0.025	-0.0	-0.0	-0.0	-0.0	-0.0	-0.0	11.52433967590332	-127.006591796875	-834.0914306640625	-0.0	-0.0	-0.0	-0.0	-0.0	-0.0	178201.46875	-15740.552734375	1583.1864013671875
